<svg width="32" height="32" viewBox="0 0 32 32" fill="none" xmlns="http://www.w3.org/2000/svg">
<path d="M24.367 6.40234C23.9988 6.40234 23.6389 6.50902 23.3328 6.70889C23.0267 6.90875 22.7882 7.19284 22.6473 7.5252C22.5064 7.85757 22.4695 8.22329 22.5413 8.57613C22.6132 8.92897 22.7904 9.25307 23.0507 9.50746C23.3111 9.76184 23.6428 9.93507 24.0039 10.0053C24.3649 10.0754 24.7392 10.0394 25.0794 9.90175C25.4195 9.76408 25.7102 9.53094 25.9147 9.23182C26.1192 8.9327 26.2284 8.58103 26.2284 8.22128C26.2284 7.73887 26.0323 7.27621 25.6832 6.9351C25.3341 6.59398 24.8606 6.40234 24.367 6.40234Z" fill="white"/>
<path d="M16.1126 8.72656C14.5706 8.72656 13.0632 9.17342 11.781 10.0106C10.4989 10.8478 9.49961 12.0378 8.9095 13.43C8.31939 14.8222 8.16493 16.3542 8.46576 17.8321C8.76659 19.3101 9.50915 20.6677 10.5995 21.7333C11.6899 22.7988 13.0792 23.5245 14.5916 23.8185C16.104 24.1125 17.6716 23.9616 19.0962 23.3849C20.5209 22.8082 21.7386 21.8317 22.5953 20.5787C23.452 19.3257 23.9092 17.8526 23.9092 16.3457C23.9092 15.3452 23.7075 14.3544 23.3157 13.43C22.9239 12.5056 22.3497 11.6657 21.6257 10.9582C20.9017 10.2507 20.0422 9.68944 19.0962 9.30654C18.1503 8.92364 17.1365 8.72656 16.1126 8.72656ZM16.1126 21.2214C15.1265 21.2184 14.1634 20.93 13.3449 20.3924C12.5265 19.8549 11.8894 19.0924 11.5141 18.2012C11.1388 17.3101 11.0422 16.3302 11.2364 15.3854C11.4306 14.4406 11.907 13.5732 12.6053 12.8929C13.3037 12.2125 14.1927 11.7496 15.1601 11.5627C16.1275 11.3758 17.1299 11.4732 18.0407 11.8426C18.9514 12.2121 19.7298 12.837 20.2773 13.6385C20.8249 14.44 21.1171 15.382 21.1171 16.3457C21.1131 17.6402 20.584 18.8803 19.646 19.7942C18.7079 20.7082 17.4372 21.2214 16.1126 21.2214Z" fill="white"/>
<path d="M22.307 31.8082H9.67381C8.42553 31.8082 7.18942 31.5679 6.03617 31.1011C4.88291 30.6343 3.83509 29.9501 2.95243 29.0875C2.06976 28.225 1.36955 27.2009 0.891854 26.074C0.41416 24.947 0.168274 23.7391 0.168274 22.5192V10.1737C0.168274 7.71013 1.16981 5.34746 2.95243 3.60544C4.73505 1.86342 7.1528 0.884766 9.67381 0.884766H22.307C24.828 0.884766 27.2458 1.86342 29.0284 3.60544C30.811 5.34746 31.8125 7.71013 31.8125 10.1737V22.5192C31.8125 23.7391 31.5667 24.947 31.089 26.074C30.6113 27.2009 29.9111 28.225 29.0284 29.0875C28.1458 29.9501 27.0978 30.6343 25.9446 31.1011C24.7913 31.5679 23.5553 31.8082 22.307 31.8082ZM9.67381 3.79222C7.94188 3.79222 6.28087 4.46456 5.05621 5.66132C3.83155 6.85809 3.14352 8.48124 3.14352 10.1737V22.5192C3.1395 23.3598 3.30549 24.1928 3.63187 24.9705C3.95824 25.7482 4.43862 26.4552 5.04541 27.0509C5.6522 27.6467 6.37344 28.1194 7.16773 28.4419C7.96201 28.7645 8.81367 28.9306 9.67381 28.9305H22.307C23.1646 28.9305 24.0138 28.7655 24.806 28.4448C25.5983 28.1241 26.3182 27.654 26.9246 27.0614C27.531 26.4689 28.012 25.7654 28.3402 24.9911C28.6684 24.2169 28.8373 23.3871 28.8373 22.5491V10.1737C28.8373 8.48124 28.1493 6.85809 26.9246 5.66132C25.7 4.46456 24.039 3.79222 22.307 3.79222H9.67381Z" fill="white"/>
</svg>
