<svg width="33" height="27" viewBox="0 0 33 27" fill="none" xmlns="http://www.w3.org/2000/svg">
<path d="M32.5687 3.25852C31.4857 3.71462 30.3449 4.02676 29.177 4.18659C29.7197 4.18659 30.4998 3.15908 30.8729 2.77792C31.3633 2.19988 31.7374 1.53635 31.9752 0.822365C31.9752 0.822365 31.9752 0.689788 31.9752 0.656643C31.9469 0.640643 31.9146 0.632228 31.8819 0.632228C31.8491 0.632228 31.817 0.640643 31.7886 0.656643C30.5488 1.29768 29.2331 1.78748 27.8711 2.11503C27.8305 2.14005 27.7836 2.15333 27.7355 2.15333C27.6875 2.15333 27.6405 2.14005 27.5998 2.11503C27.4955 1.99115 27.3822 1.87483 27.2606 1.767C26.6969 1.28962 26.0548 0.908631 25.3613 0.640067C24.4392 0.265494 23.4404 0.106598 22.4444 0.17604C21.4781 0.244848 20.5362 0.505139 19.6761 0.941053C18.816 1.37697 18.0558 1.97938 17.4416 2.71163C16.807 3.47751 16.355 4.37203 16.1187 5.33008C15.9324 6.23804 15.9324 7.17315 16.1187 8.08111C16.1187 8.23026 16.1187 8.24683 15.983 8.23026C10.804 7.72854 5.9998 5.36636 2.50093 1.60127C2.3483 1.41898 2.26347 1.41898 2.14476 1.60127C1.43178 2.86238 1.15861 4.31616 1.36669 5.74252C1.57477 7.16888 2.25275 8.49017 3.29794 9.50635L4.1289 10.219C3.22614 10.1414 2.3462 9.89973 1.53427 9.50635C1.36468 9.40691 1.29681 9.50634 1.27985 9.63892C1.2549 9.88691 1.2549 10.1367 1.27985 10.3847C1.44033 11.5718 1.92054 12.696 2.67141 13.6424C3.42228 14.5887 4.4169 15.3232 5.55348 15.7707C5.82943 15.8938 6.11997 15.9828 6.41839 16.0359C5.57002 16.1663 4.70599 16.1663 3.85761 16.0359C3.67106 16.0359 3.60325 16.0359 3.67109 16.2679C4.10664 17.386 4.82775 18.3765 5.76578 19.1452C6.70381 19.9139 7.8275 20.4353 9.03 20.6596C9.27522 20.6755 9.51892 20.7087 9.75922 20.7591C8.71857 21.681 7.45989 22.3359 6.09617 22.6649C4.31448 23.2837 2.41743 23.5211 0.53366 23.3609C0.228402 23.3609 0.17751 23.3609 0.0927161 23.3609C0.00792238 23.3609 0.0927989 23.4769 0.177593 23.5598C0.550685 23.7918 0.940723 24.0072 1.33077 24.2227C2.5111 24.8387 3.75639 25.3277 5.04474 25.6811C8.35103 26.6456 11.8576 26.7509 15.2182 25.9865C18.5789 25.2221 21.6774 23.6146 24.2081 21.3225C26.0283 19.3909 27.4355 17.1235 28.347 14.6533C29.2585 12.1831 29.656 9.55992 29.5162 6.93761C29.5162 6.73874 29.7705 6.62273 29.9232 6.50672C30.9188 5.74927 31.7983 4.85634 32.5348 3.85513C32.6484 3.70718 32.7082 3.52633 32.7044 3.34139C32.7044 3.34139 32.7044 3.2088 32.5687 3.25852Z" fill="white"/>
</svg>
