<svg width="40" height="28" viewBox="0 0 40 28" fill="none" xmlns="http://www.w3.org/2000/svg">
<path d="M39.6969 8.51651C39.6969 6.25779 38.7787 4.09156 37.1445 2.4944C35.5102 0.897243 33.2937 0 30.9824 0H8.71446C6.40324 0 4.18659 0.897243 2.55231 2.4944C0.918035 4.09156 0 6.25779 0 8.51651V18.5359C0 20.7947 0.918035 22.9609 2.55231 24.5581C4.18659 26.1552 6.40324 27.0525 8.71446 27.0525H30.9824C33.2937 27.0525 35.5102 26.1552 37.1445 24.5581C38.7787 22.9609 39.6969 20.7947 39.6969 18.5359V8.51651ZM26.5944 14.3278L16.6087 19.1571C16.2191 19.3776 14.8862 19.1571 14.8862 18.6562V8.73691C14.8862 8.29606 16.2396 8.01551 16.6292 8.23594L26.1843 13.3258C26.5944 13.4861 27.0045 14.0472 26.5944 14.2677V14.3278Z" fill="white"/>
</svg>
